<?xml version="1.0" encoding="utf-8"?>
<!-- Generator: Adobe Illustrator 16.0.4, SVG Export Plug-In . SVG Version: 6.00 Build 0)  -->
<!DOCTYPE svg PUBLIC "-//W3C//DTD SVG 1.1//EN" "http://www.w3.org/Graphics/SVG/1.1/DTD/svg11.dtd">
<svg version="1.1" id="Layer_1" xmlns="http://www.w3.org/2000/svg" xmlns:xlink="http://www.w3.org/1999/xlink" x="0px" y="0px"
	 width="80px" height="80px" viewBox="0 0 80 80" enable-background="new 0 0 80 80" xml:space="preserve">
<path opacity="0.1" fill="#282828" d="M45.864,40.5l17.873-17.873c1.73-1.73,1.73-4.536,0-6.266l-0.099-0.099
	c-1.73-1.73-4.535-1.73-6.266,0L39.5,34.136L22.127,16.763c-1.73-1.73-4.536-1.73-6.266,0l-0.099,0.099
	c-1.73,1.73-1.73,4.535,0,6.266L33.136,40.5L16.263,57.373c-1.73,1.73-1.73,4.535,0,6.266l0.099,0.099
	c1.73,1.73,4.535,1.729,6.266,0L39.5,46.864l17.373,17.373c1.73,1.73,4.535,1.73,6.266,0l0.099-0.099c1.73-1.73,1.73-4.535,0-6.266
	L45.864,40.5z"/>
</svg>
