<?xml version="1.0" encoding="utf-8"?>
<!-- Generator: Adobe Illustrator 16.0.4, SVG Export Plug-In . SVG Version: 6.00 Build 0)  -->
<!DOCTYPE svg PUBLIC "-//W3C//DTD SVG 1.1//EN" "http://www.w3.org/Graphics/SVG/1.1/DTD/svg11.dtd">
<svg version="1.1" id="Layer_1" xmlns="http://www.w3.org/2000/svg" xmlns:xlink="http://www.w3.org/1999/xlink" x="0px" y="0px"
	 width="950px" height="300px" viewBox="0 0 950 300" enable-background="new 0 0 950 300" xml:space="preserve">
<path fill="#282828" d="M35.339,287.934c23.534-29.452,62.169-48.662,105.841-48.662c41.697,0,78.799,17.516,102.553,44.734
	l21.28-0.4c0,0-46.914-52.327-47.217-107.75c0,0-2.838-32.41-7.629-57.85c-0.37-1.965-0.709-3.762-1.024-5.435
	c-0.554-5.125-1.497-9.893-2.805-14.676c-0.961-5.101-0.963-4.895-0.963-4.895h-0.593c-7.541-23-23.11-40.273-42.455-47.623
	c8.723-9.893,18.685-13.457,18.685-13.457c-18.658-5.401-30.018,8.917-30.932,10.122c2.696-21.907,22.109-30.161,22.109-30.161
	c-27.381-2.649-44.176,30.883-44.241,31.014C104.818,48.048,85.84,67,77.255,93h-0.017c0,0,0-0.198-0.021-0.087
	c-2.641,7.888-4.288,16.273-4.755,25.146c-0.005,0.027-0.01,0.002-0.015,0.029c-4.792,25.44-10.877,60.119-10.877,60.119
	c2.108,53.401-44.225,110.065-44.225,110.065L35.339,287.934z"/>
<path fill="#B70000" d="M233.536,126.268c-45.081-11.645-74.697,0-74.697,0c-19.264-3.65-30.127,0-30.127,0
	c-25.664-10.619-84.956,0-84.956,0c0,50.994,40.649,55.391,40.649,55.391c44.425,1.94,45.604-40.077,45.604-40.077
	c12.843-8.518,19.525-0.786,19.525-0.786c7.339,41.542,44.688,40.625,44.688,40.625
	C239.041,185.875,233.536,126.268,233.536,126.268z M95.013,174.273c0,0-14.558,2.541-31.333-11.611c0,0-11.624-21.169,0-30.722
	c0,0,40.666-6,55.666,5.667C119.346,137.606,129.9,161.338,95.013,174.273z M217.68,162.662
	c-16.776,14.152-31.333,11.611-31.333,11.611c-34.888-12.936-24.334-36.667-24.334-36.667c15-11.667,55.667-5.667,55.667-5.667
	C229.303,141.493,217.68,162.662,217.68,162.662z"/>
<path fill="#E1E9EB" d="M80.18,137.439c0,0-0.545,19.341,19.416,19.917c22.417,0.647,18.375-20.339,16.709-19.672L110.346,138
	h-1.333c0,0,0.667,6.97-10.076,8.66c0,0-10.591-0.581-10.924-8.081L80.18,137.439z"/>
<path fill="#E1E9EB" d="M199.693,137.439c0,0,0.544,19.341-19.417,19.917c-22.416,0.647-18.375-20.339-16.708-19.672l5.958,0.315
	h1.334c0,0-0.667,6.97,10.076,8.66c0,0,10.59-0.581,10.924-8.081L199.693,137.439z"/>
<path fill="#EFB051" d="M141.307,150.939c0,0,8.706,4,15.373,18c0,0,6.333,11,26,25c0,0-19.078-0.667-41.373,10.666
	c0,0-25.113-12-42.37-10.666c0,0,16.409-12.334,23.076-21.334C122.013,172.605,136.602,150.606,141.307,150.939z"/>
<path fill="#BD0016" d="M92.346,208.938c0,0,26-3.666,40.667,13.667c0,0,11.667,1.667,17.333,0c0,0,19.75-11.226,29.659-13.701
	c0.47-0.117,0.918-0.215,1.341-0.29c9.333-1.676,16.333,3.991,16.333,27.991c0,0,3,35.667-11,30c0,0-19.999-8.333-31.333-18
	c0,0-13.334-6.667-19.667-3.334c0,0-11.333,13-26.333,18.667c0,0-6.348,6.667-17.496-1.685c-0.275-0.207-0.555-0.423-0.837-0.648
	C79.346,252.271,84.013,203.605,92.346,208.938z"/>
<circle fill="#EEEEF0" cx="96.679" cy="227.605" r="5.333"/>
<circle fill="#EEEEF0" cx="99.679" cy="248.605" r="5.333"/>
<circle fill="#EEEEF0" cx="114.679" cy="234.605" r="5.333"/>
<g>
	<g>
		<path fill="#930015" d="M132.513,228.271c-0.019,3.838-0.287,7.73,1.054,11.398c0.658,1.802,3.558,1.024,2.893-0.797
			c-1.25-3.421-0.964-7.024-0.946-10.602C135.522,226.337,132.522,226.337,132.513,228.271L132.513,228.271z"/>
	</g>
</g>
<circle fill="#EEEEF0" cx="167.982" cy="233.194" r="5.333"/>
<circle fill="#EEEEF0" cx="184.133" cy="246.947" r="5.333"/>
<circle fill="#EEEEF0" cx="186.107" cy="226.524" r="5.333"/>
<g>
	<g>
		<path fill="#930015" d="M148.179,226.605c-0.024,4.932-0.331,9.819-1.612,14.602c-0.501,1.871,2.393,2.664,2.893,0.797
			c1.348-5.032,1.694-10.207,1.72-15.398C151.188,224.671,148.188,224.672,148.179,226.605L148.179,226.605z"/>
	</g>
</g>
<text transform="matrix(1 0 0 1 286.0127 217.1113)" fill="#BD0016" font-family="'OpenSans-Extrabold'" font-size="126.108">Smart</text>
<text transform="matrix(1 0 0 1 690.7217 217.1113)" fill="#282828" font-family="'OpenSans-Extrabold'" font-size="126.108">Ask</text>
</svg>
