<?xml version="1.0" encoding="utf-8"?>
<!-- Generator: Adobe Illustrator 16.0.4, SVG Export Plug-In . SVG Version: 6.00 Build 0)  -->
<!DOCTYPE svg PUBLIC "-//W3C//DTD SVG 1.1//EN" "http://www.w3.org/Graphics/SVG/1.1/DTD/svg11.dtd">
<svg version="1.1" id="Layer_1" xmlns="http://www.w3.org/2000/svg" xmlns:xlink="http://www.w3.org/1999/xlink" x="0px" y="0px"
	 width="950px" height="300px" viewBox="0 0 950 300" enable-background="new 0 0 950 300" xml:space="preserve">
<path fill="#282828" d="M35.339,287.934c23.534-29.452,62.169-48.662,105.841-48.662c41.697,0,78.799,17.516,102.553,44.734
	l21.28-0.4c0,0-46.914-52.327-47.217-107.75c0,0-2.838-32.41-7.629-57.85c-0.37-1.965-0.709-3.762-1.024-5.435
	c-0.554-5.125-1.497-9.893-2.805-14.676c-0.961-5.101-0.963-4.895-0.963-4.895h-0.593c-7.541-23-23.11-40.273-42.455-47.623
	c8.723-9.893,18.685-13.457,18.685-13.457c-18.658-5.401-30.018,8.917-30.932,10.122c2.696-21.907,22.109-30.161,22.109-30.161
	c-27.381-2.649-44.176,30.883-44.241,31.014C104.818,48.048,85.84,67,77.255,93h-0.017c0,0,0-0.198-0.021-0.087
	c-2.641,7.888-4.288,16.273-4.755,25.146c-0.005,0.027-0.01,0.002-0.015,0.029c-4.792,25.44-10.877,60.119-10.877,60.119
	c2.108,53.401-44.225,110.065-44.225,110.065L35.339,287.934z"/>
<path fill="#B70000" d="M233.536,126.268c-45.081-11.645-74.697,0-74.697,0c-19.264-3.65-30.127,0-30.127,0
	c-25.664-10.619-84.956,0-84.956,0c0,50.994,40.649,55.391,40.649,55.391c44.425,1.94,45.604-40.077,45.604-40.077
	c12.843-8.518,19.525-0.786,19.525-0.786c7.339,41.542,44.688,40.625,44.688,40.625
	C239.041,185.875,233.536,126.268,233.536,126.268z M95.013,174.273c0,0-14.558,2.541-31.333-11.611c0,0-11.624-21.169,0-30.722
	c0,0,40.666-6,55.666,5.667C119.346,137.606,129.9,161.338,95.013,174.273z M217.68,162.662
	c-16.776,14.152-31.333,11.611-31.333,11.611c-34.888-12.936-24.334-36.667-24.334-36.667c15-11.667,55.667-5.667,55.667-5.667
	C229.303,141.493,217.68,162.662,217.68,162.662z"/>
<path fill="#E1E9EB" d="M80.18,137.439c0,0-0.545,19.341,19.416,19.917c22.417,0.647,18.375-20.339,16.709-19.672L110.346,138
	h-1.333c0,0,0.667,6.97-10.076,8.66c0,0-10.591-0.581-10.924-8.081L80.18,137.439z"/>
<path fill="#E1E9EB" d="M199.693,137.439c0,0,0.544,19.341-19.417,19.917c-22.416,0.647-18.375-20.339-16.708-19.672l5.958,0.315
	h1.334c0,0-0.667,6.97,10.076,8.66c0,0,10.59-0.581,10.924-8.081L199.693,137.439z"/>
<path fill="#EFB051" d="M141.307,150.939c0,0,8.706,4,15.373,18c0,0,6.333,11,26,25c0,0-19.078-0.667-41.373,10.666
	c0,0-25.113-12-42.37-10.666c0,0,16.409-12.334,23.076-21.334C122.013,172.605,136.602,150.606,141.307,150.939z"/>
<path fill="#BD0016" d="M92.346,208.938c0,0,26-3.666,40.667,13.667c0,0,11.667,1.667,17.333,0c0,0,19.75-11.226,29.659-13.701
	c0.47-0.117,0.918-0.215,1.341-0.29c9.333-1.676,16.333,3.991,16.333,27.991c0,0,3,35.667-11,30c0,0-19.999-8.333-31.333-18
	c0,0-13.334-6.667-19.667-3.334c0,0-11.333,13-26.333,18.667c0,0-6.348,6.667-17.496-1.685c-0.275-0.207-0.555-0.423-0.837-0.648
	C79.346,252.271,84.013,203.605,92.346,208.938z"/>
<circle fill="#EEEEF0" cx="96.679" cy="227.605" r="5.333"/>
<circle fill="#EEEEF0" cx="99.679" cy="248.605" r="5.333"/>
<circle fill="#EEEEF0" cx="114.679" cy="234.605" r="5.333"/>
<g>
	<g>
		<path fill="#930015" d="M132.513,228.271c-0.019,3.838-0.287,7.73,1.054,11.398c0.658,1.802,3.558,1.024,2.893-0.797
			c-1.25-3.421-0.964-7.024-0.946-10.602C135.522,226.337,132.522,226.337,132.513,228.271L132.513,228.271z"/>
	</g>
</g>
<circle fill="#EEEEF0" cx="167.982" cy="233.194" r="5.333"/>
<circle fill="#EEEEF0" cx="184.133" cy="246.947" r="5.333"/>
<circle fill="#EEEEF0" cx="186.107" cy="226.524" r="5.333"/>
<g>
	<g>
		<path fill="#930015" d="M148.179,226.605c-0.024,4.932-0.331,9.819-1.612,14.602c-0.501,1.871,2.393,2.664,2.893,0.797
			c1.348-5.032,1.694-10.207,1.72-15.398C151.188,224.671,148.188,224.672,148.179,226.605L148.179,226.605z"/>
	</g>
</g>
<g>
	<path fill="#BD0016" d="M354.608,189.771c0,5.584-1.416,10.54-4.249,14.871s-6.918,7.697-12.254,10.098
		c-5.337,2.402-11.597,3.603-18.781,3.603c-5.994,0-11.022-0.421-15.086-1.263c-4.064-0.84-8.292-2.309-12.685-4.402v-21.675
		c4.638,2.382,9.461,4.239,14.47,5.573c5.008,1.334,9.606,2.001,13.793,2.001c3.612,0,6.26-0.626,7.943-1.878
		c1.683-1.252,2.525-2.863,2.525-4.834c0-1.231-0.339-2.309-1.016-3.232s-1.766-1.857-3.264-2.803
		c-1.499-0.943-5.491-2.873-11.977-5.787c-5.871-2.668-10.273-5.255-13.208-7.76c-2.936-2.503-5.111-5.377-6.527-8.62
		c-1.417-3.242-2.125-7.081-2.125-11.515c0-8.292,3.017-14.757,9.052-19.396c6.034-4.638,14.326-6.958,24.876-6.958
		c9.318,0,18.821,2.155,28.51,6.465l-7.451,18.781c-8.416-3.858-15.682-5.788-21.798-5.788c-3.162,0-5.46,0.554-6.896,1.663
		c-1.438,1.108-2.155,2.484-2.155,4.125c0,1.766,0.913,3.347,2.74,4.741c1.826,1.396,6.783,3.941,14.871,7.636
		c7.759,3.489,13.146,7.235,16.164,11.237C353.1,178.657,354.608,183.697,354.608,189.771z"/>
	<path fill="#BD0016" d="M452.761,217.111V179.18c0-4.719-0.646-8.26-1.94-10.621c-1.293-2.36-3.335-3.541-6.126-3.541
		c-3.695,0-6.404,1.581-8.128,4.742s-2.586,8.107-2.586,14.84v32.512h-24.138V179.18c0-4.719-0.616-8.26-1.848-10.621
		c-1.231-2.36-3.223-3.541-5.973-3.541c-3.777,0-6.527,1.684-8.251,5.05s-2.586,8.866-2.586,16.502v30.542h-24.076v-69.766h18.165
		l3.018,8.621h1.416c1.847-3.203,4.526-5.645,8.036-7.328c3.51-1.683,7.502-2.524,11.977-2.524c10.057,0,17.118,3.059,21.182,9.175
		h1.909c1.97-2.873,4.71-5.121,8.22-6.743c3.51-1.621,7.378-2.432,11.607-2.432c8.251,0,14.347,2.115,18.288,6.343
		c3.941,4.229,5.912,10.652,5.912,19.272v45.382H452.761z"/>
	<path fill="#BD0016" d="M538.721,217.111l-4.617-9.236h-0.493c-3.243,4.023-6.548,6.773-9.913,8.251
		c-3.367,1.478-7.719,2.217-13.055,2.217c-6.568,0-11.74-1.97-15.518-5.911s-5.664-9.482-5.664-16.625
		c0-7.43,2.586-12.963,7.758-16.596c5.173-3.633,12.664-5.674,22.476-6.127l11.638-0.369v-0.985c0-5.747-2.832-8.62-8.497-8.62
		c-5.091,0-11.556,1.724-19.397,5.172l-6.957-15.887c8.128-4.187,18.39-6.28,30.787-6.28c8.949,0,15.877,2.216,20.783,6.649
		c4.904,4.434,7.357,10.633,7.357,18.597v45.751H538.721z M520.864,201.348c2.915,0,5.408-0.924,7.481-2.771
		c2.072-1.848,3.109-4.249,3.109-7.204v-5.42l-5.541,0.247c-7.924,0.288-11.885,3.202-11.885,8.743
		C514.029,199.214,516.308,201.348,520.864,201.348z"/>
	<path fill="#BD0016" d="M613.906,146.114c2.094,0,4.084,0.164,5.973,0.492l1.354,0.247l-2.155,22.721
		c-1.971-0.492-4.701-0.738-8.189-0.738c-5.255,0-9.072,1.2-11.453,3.602c-2.381,2.402-3.571,5.861-3.571,10.376v34.298h-24.076
		v-69.766h17.919l3.756,11.145h1.17c2.011-3.693,4.812-6.681,8.404-8.958C606.629,147.253,610.252,146.114,613.906,146.114z"/>
	<path fill="#BD0016" d="M665.138,199.316c3.242,0,7.121-0.801,11.637-2.402v17.549c-3.242,1.396-6.332,2.393-9.266,2.987
		c-2.936,0.595-6.373,0.893-10.314,0.893c-8.088,0-13.917-1.979-17.487-5.942c-3.572-3.961-5.357-10.047-5.357-18.257v-28.757
		h-8.436v-9.79l10.714-7.574l6.219-14.655h15.764v13.978h17.119v18.041H658.61v27.156
		C658.61,197.059,660.786,199.316,665.138,199.316z"/>
</g>
<g>
	<path fill="#282828" d="M755.685,217.111l-4.434-16.873h-29.249l-4.557,16.873h-26.724l29.372-90.394h32.45l29.741,90.394H755.685z
		 M746.201,180.288l-3.879-14.778c-0.903-3.283-2.001-7.532-3.294-12.746c-1.294-5.213-2.146-8.949-2.556-11.207
		c-0.369,2.093-1.099,5.542-2.186,10.345c-1.088,4.803-3.5,14.265-7.235,28.386H746.201z"/>
	<path fill="#282828" d="M844.478,195.682c0,7.473-2.545,13.116-7.635,16.934c-5.092,3.818-12.398,5.727-21.922,5.727
		c-5.173,0-9.667-0.276-13.485-0.83c-3.817-0.555-7.718-1.57-11.699-3.049v-19.273c3.734,1.643,7.83,2.997,12.285,4.064
		c4.453,1.068,8.425,1.601,11.914,1.601c5.213,0,7.82-1.19,7.82-3.571c0-1.231-0.729-2.329-2.186-3.295
		c-1.458-0.963-5.696-2.842-12.716-5.633c-6.403-2.627-10.879-5.613-13.423-8.96c-2.547-3.345-3.818-7.583-3.818-12.716
		c0-6.485,2.504-11.535,7.512-15.147c5.008-3.612,12.09-5.418,21.244-5.418c4.598,0,8.918,0.503,12.962,1.508
		c4.043,1.006,8.24,2.474,12.592,4.403l-6.527,15.517c-3.201-1.437-6.588-2.657-10.159-3.663s-6.486-1.51-8.744-1.51
		c-3.94,0-5.911,0.965-5.911,2.895c0,1.191,0.687,2.207,2.063,3.048c1.374,0.843,5.346,2.556,11.914,5.142
		c4.886,2.012,8.528,3.982,10.931,5.912c2.4,1.93,4.166,4.197,5.295,6.804C843.913,188.776,844.478,191.947,844.478,195.682z"/>
	<path fill="#282828" d="M881.177,177.887c2.914-4.639,5.397-8.251,7.45-10.838l15.641-19.704h26.848l-24.2,29.68l25.739,40.086
		H905.13l-15.271-25l-7.819,5.973v19.027h-24.2v-95.813h24.2v37.684c0,6.445-0.453,12.746-1.355,18.904H881.177z"/>
</g>
</svg>
